<svg xmlns="http://www.w3.org/2000/svg" width="81" height="11" viewBox="0 0 81 11"><path fill="#fad12f" d="M5.9.19l1.92 3.33 3.9.71L9 7.01l.5 3.77-3.6-1.62-3.59 1.62.5-3.77L.08 4.23l3.9-.71L5.9.19m16.92 0l1.92 3.33 3.9.71-2.72 2.78.5 3.77-3.6-1.62-3.6 1.62.5-3.77L17 4.23l3.9-.71L22.81.19m17.99 0l1.91 3.33 3.9.71-2.71 2.78.49 3.77-3.6-1.62-3.59 1.62.5-3.77-2.72-2.78 3.9-.71L40.79.19m16.92 0l1.92 3.33 3.9.71-2.72 2.78.5 3.77-3.6-1.62-3.6 1.62.5-3.77-2.71-2.78 3.9-.71L57.7.19m16.93 0l1.91 3.33 3.9.71-2.71 2.78.5 3.77-3.6-1.62-3.6 1.62.5-3.77-2.72-2.78 3.9-.71L74.63.19"/></svg>